# xmcd CD database file
#
# Track frame offsets:
#	150
#	14150
#	30787
#	45802
#	70652
#	87862
#	102315
#	125652
#	142600
#	159575
#	172932
#	195780
#
# Disc length: 2842 seconds
#
# Revision: 0
# Processed by: cddbd v1.5.1PL0 Copyright (c) Steve Scherf et al.
# Submitted via: CDex 1.51
#
DISCID=830b180c
DTITLE=Carsten Schnell - U!
DYEAR=1995
DGENRE=New Age
TTITLE0=U!verture
TTITLE1=Romantic Nightmare
TTITLE2=Northerm Summer
TTITLE3=Definitely You
TTITLE4=Morming Coffee
TTITLE5=Midnight Afternoon
TTITLE6=Don´t Know Why
TTITLE7=Try If
TTITLE8=Go
TTITLE9=Escape
TTITLE10=Walking And Thinking
TTITLE11=Trelibitum
EXTD=YEAR: 1995
EXTT0=
EXTT1=
EXTT2=
EXTT3=
EXTT4=
EXTT5=
EXTT6=
EXTT7=
EXTT8=
EXTT9=
EXTT10=
EXTT11=
PLAYORDER=
